<?xml version="1.0" encoding="UTF-8" standalone="no"?>
<!-- Created with Inkscape (http://www.inkscape.org/) -->

<svg
   width="251.40523mm"
   height="249.76532mm"
   viewBox="0 0 251.40523 249.76532"
   version="1.1"
   id="svg1"
   xml:space="preserve"
   inkscape:export-filename="raspionsvg.svg"
   inkscape:export-xdpi="96"
   inkscape:export-ydpi="96"
   xmlns:inkscape="http://www.inkscape.org/namespaces/inkscape"
   xmlns:sodipodi="http://sodipodi.sourceforge.net/DTD/sodipodi-0.dtd"
   xmlns="http://www.w3.org/2000/svg"
   xmlns:svg="http://www.w3.org/2000/svg"><sodipodi:namedview
     id="namedview1"
     pagecolor="#ffffff"
     bordercolor="#000000"
     borderopacity="0.25"
     inkscape:showpageshadow="2"
     inkscape:pageopacity="0.0"
     inkscape:pagecheckerboard="0"
     inkscape:deskcolor="#d1d1d1"
     inkscape:document-units="mm"
     inkscape:clip-to-page="false"><inkscape:page
       x="0"
       y="0"
       width="251.40523"
       height="249.76532"
       id="page2"
       margin="0"
       bleed="0" /></sodipodi:namedview><defs
     id="defs1" /><g
     inkscape:label="Layer 1"
     inkscape:groupmode="layer"
     id="layer1"
     transform="translate(255.34796,5.4708816)"><path
       style="fill:#000055;stroke-width:0.832757"
       d="M -138.88467,204.60528 V 186.0828 h 3.17399 3.17399 v 1.7329 1.73291 l 1.14668,-0.97374 c 2.19481,-1.86383 4.84067,-2.70621 8.50002,-2.70621 5.94099,0 10.57553,2.57167 12.91189,7.16468 1.22643,2.41099 1.566,3.88956 1.55113,6.75396 -0.0289,5.55425 -2.75433,10.05004 -7.39277,12.19457 -2.53033,1.16988 -4.09967,1.50993 -6.96825,1.50993 -3.65857,0 -6.21514,-0.79906 -8.26419,-2.58298 -0.53264,-0.46373 -1.03354,-0.84314 -1.11312,-0.84314 -0.0796,0 -0.14467,2.93896 -0.14467,6.53104 v 6.53106 h -3.28736 -3.28734 z m 19.08239,2.72813 c 2.5636,-1.19313 4.07345,-3.28093 4.54562,-6.28564 0.60743,-3.86551 -1.31167,-7.63533 -4.66814,-9.17001 -2.10076,-0.96052 -5.56754,-0.91328 -7.78063,0.10608 -1.55868,0.71789 -3.30353,2.54189 -3.93206,4.11044 -1.11964,2.79415 -0.76077,6.37395 0.86224,8.60091 1.05336,1.44533 2.09288,2.24199 3.81415,2.92308 1.16039,0.45914 1.62754,0.5221 3.49912,0.47155 1.91145,-0.0517 2.33247,-0.13865 3.6597,-0.75635 z m -74.82853,5.81994 c -2.99202,-0.76 -5.47154,-2.68015 -6.36128,-4.92619 -0.62929,-1.58861 -0.62929,-3.94206 0,-5.53067 0.63607,-1.60569 2.17974,-3.17022 3.93172,-3.98486 2.13053,-0.99065 4.27116,-1.26373 9.97336,-1.27232 l 4.96207,-0.007 -0.11756,-1.38335 c -0.21187,-2.49301 -1.64852,-4.04613 -4.35639,-4.70958 -2.81809,-0.69045 -6.36031,-0.23251 -9.41767,1.21751 -1.05989,0.50268 -1.97808,0.93652 -2.04042,0.96409 -0.0623,0.0276 -0.67245,-0.95736 -1.35579,-2.18875 -1.42621,-2.57009 -1.50033,-2.31768 1.03072,-3.50967 2.71318,-1.27778 5.06196,-1.77577 8.94803,-1.8972 3.05863,-0.0956 3.76473,-0.052 5.36787,0.33086 3.68582,0.88035 5.97139,2.45293 7.31692,5.03444 1.1987,2.29977 1.34691,3.76117 1.35571,13.36862 l 0.008,8.61885 h -3.17399 -3.17401 v -1.62289 -1.62291 l -1.02293,0.96617 c -1.14845,1.08472 -2.81081,1.89979 -4.59939,2.2551 -1.66844,0.33145 -5.8003,0.27478 -7.27489,-0.0998 z m 7.81168,-4.47204 c 1.66536,-0.46727 3.18882,-1.475 3.95502,-2.61613 0.61329,-0.91337 0.67709,-1.17804 0.67709,-2.8086 v -1.80019 l -4.59096,0.10056 c -5.07393,0.11115 -5.93324,0.27017 -7.15029,1.32362 -0.74746,0.64698 -0.82306,0.82147 -0.89776,2.07215 -0.11883,1.98926 0.6482,3.00024 2.8357,3.73764 1.1357,0.38284 3.79114,0.37822 5.1712,-0.009 z m 24.04459,4.47776 c -0.85721,-0.16087 -2.23449,-0.50256 -3.06064,-0.7593 -1.52562,-0.47412 -4.10928,-1.60924 -4.10928,-1.80541 0,-0.0591 0.56211,-1.1662 1.24915,-2.46008 l 1.24916,-2.35254 1.18802,0.6243 c 3.77233,1.98234 10.52475,2.64973 13.29644,1.31418 1.60009,-0.77101 2.085,-2.43931 1.04749,-3.60389 -0.67554,-0.75829 -1.93653,-1.12318 -6.48671,-1.87703 -5.33401,-0.88371 -6.75559,-1.38185 -8.6041,-3.01496 -1.49062,-1.31692 -2.05142,-2.63172 -2.05652,-4.82148 -0.006,-2.3206 0.48979,-3.57378 2.03747,-5.15633 2.45943,-2.51483 5.85927,-3.49847 11.46624,-3.31744 3.70218,0.11952 6.18924,0.57849 8.54454,1.57683 l 1.30494,0.55312 -1.2377,2.33094 c -0.68073,1.28201 -1.32653,2.33094 -1.43511,2.33094 -0.10853,0 -0.74537,-0.23683 -1.41507,-0.52628 -2.13095,-0.92099 -3.96009,-1.26467 -6.77214,-1.27243 -2.35157,-0.007 -2.73443,0.0484 -3.90486,0.56014 -1.56834,0.68567 -2.29687,1.6173 -2.12286,2.71468 0.24901,1.57044 1.73284,2.27581 6.55817,3.11756 1.65234,0.28825 3.47754,0.62426 4.05602,0.74669 3.25864,0.68976 5.41124,2.03145 6.44286,4.01577 0.55877,1.07483 0.64577,1.49026 0.64154,3.06357 -0.004,1.5146 -0.10618,2.02575 -0.60785,3.04504 -1.18573,2.40892 -4.06945,4.26768 -7.70942,4.96931 -2.1602,0.41639 -7.35104,0.41861 -9.55978,0.005 z m 85.215954,-7.3e-4 c -4.807821,-1.1323 -8.611604,-4.40205 -10.254267,-8.81462 -0.560948,-1.50688 -0.620427,-1.95135 -0.624015,-4.66348 -0.0034,-2.60361 0.06839,-3.20536 0.546149,-4.57561 1.015206,-2.91162 2.857854,-5.16216 5.654918,-6.90665 2.471529,-1.54149 4.68448,-2.15393 8.231994,-2.27827 3.570509,-0.12513 5.523089,0.24156 8.305151,1.55973 3.388488,1.60548 5.803211,4.25795 6.998181,7.68721 0.527742,1.5145 0.60279,2.07643 0.60279,4.51359 0,2.43715 -0.07504,2.99909 -0.60279,4.51358 -1.443775,4.14325 -4.582798,7.09634 -9.111583,8.57187 -1.596907,0.52029 -2.201021,0.59748 -5.09889,0.65161 -2.351058,0.0439 -3.674779,-0.0299 -4.647638,-0.25896 z m 8.111276,-5.76567 c 1.608972,-0.75453 3.170518,-2.29303 3.977094,-3.91842 0.553415,-1.1152 0.607613,-1.45403 0.607613,-3.79852 0,-2.47526 -0.02848,-2.62877 -0.742289,-3.99822 -0.936622,-1.79698 -2.724769,-3.39137 -4.511695,-4.02285 -1.622538,-0.57338 -4.467722,-0.61798 -6.097077,-0.0956 -3.986131,1.27804 -6.202894,5.09251 -5.536935,9.5276 0.507008,3.37648 2.344992,5.601 5.506921,6.66504 1.849779,0.62248 5.065547,0.45258 6.796368,-0.35906 z m -168.90936,-11.94155 0.058,-17.82657 7.14148,-0.0635 c 7.47846,-0.0665 11.88372,0.15212 14.16962,0.70337 2.46119,0.59352 5.06116,1.96004 6.69154,3.51702 2.42399,2.31486 3.41097,4.76548 3.41414,8.477 0.003,3.70637 -0.99035,6.16976 -3.41414,8.46541 -0.87271,0.82654 -2.09301,1.70276 -2.98225,2.14133 l -1.50512,0.7423 4.06581,5.46038 c 2.2362,3.00321 4.16686,5.62903 4.29036,5.83513 0.20986,0.35025 -0.0177,0.37474 -3.4846,0.37474 h -3.70912 l -3.8371,-5.23726 -3.83708,-5.23725 -5.04438,-0.009 -5.04439,-0.009 v 5.24626 5.24625 h -3.51536 -3.51537 z m 19.55537,1.44724 c 3.37134,-1.16985 4.96247,-3.29883 4.96247,-6.63998 0,-2.14629 -0.58099,-3.60283 -1.93338,-4.84699 -2.01606,-1.85474 -4.226,-2.31567 -11.13411,-2.32221 l -4.4776,-0.005 v 7.19235 7.19236 l 5.72452,-0.089 c 4.83296,-0.0751 5.90108,-0.15023 6.8581,-0.48231 z m 116.87099,2.78188 V 186.0828 h 3.400704 3.400707 v 13.59744 13.59743 h -3.400707 -3.400704 z m 50.557178,0 V 186.0828 h 3.173993 3.173994 v 1.74237 1.74236 l 1.078305,-0.95266 c 2.04905,-1.81029 4.995833,-2.73768 8.71591,-2.74305 2.68253,-0.005 4.147983,0.26784 6.075753,1.12647 1.832078,0.81599 3.890234,2.70698 4.644769,4.26748 1.274968,2.63686 1.314747,2.99706 1.419985,12.85772 l 0.0977,9.15418 h -3.409558 -3.409555 l -0.06843,-8.72591 c -0.06544,-8.34752 -0.08912,-8.76818 -0.545799,-9.7004 -1.214188,-2.47851 -3.075804,-3.50859 -6.324033,-3.49925 -3.399878,0.0104 -5.675791,1.20365 -7.000081,3.67199 -0.916198,1.7077 -1.048261,3.08157 -1.048261,10.90532 v 7.34825 h -3.287351 -3.28735 z m -48.343545,-18.29647 c -1.212353,-0.36625 -2.184883,-1.1054 -2.650983,-2.01477 -0.59626,-1.16335 -0.59461,-2.11463 0.006,-3.28587 1.29982,-2.53608 5.552899,-2.84131 7.415885,-0.53221 0.849854,1.05334 0.870697,3.03138 0.04395,4.17097 -0.989004,1.36328 -3.235803,2.13883 -4.814548,1.66188 z m -66.554333,-17.61295 c -0.19009,-0.17955 -0.27274,-1.30914 -0.27274,-3.72723 V 156.574 l -0.82961,-0.62859 -0.82958,-0.62858 0.023,-2.49756 c 0.0127,-1.37365 0.0796,-2.58403 0.14876,-2.68973 0.0692,-0.10574 0.66166,-0.31163 1.31668,-0.45764 1.71538,-0.38237 4.58058,-1.40343 6.16574,-2.19726 1.57718,-0.78983 5.56741,-4.31275 5.56741,-4.9154 0,-0.36373 -0.1525,-0.38546 -1.8704,-0.26655 -1.02871,0.0712 -2.00769,0.0407 -2.17548,-0.0677 -0.24018,-0.15519 -0.0354,-0.61958 0.96217,-2.1826 0.69701,-1.092 1.37114,-2.10367 1.49808,-2.24814 0.16631,-0.18929 0.88613,-0.23404 2.57624,-0.16022 1.4808,0.0647 2.5173,0.0156 2.81162,-0.13318 0.32439,-0.16398 0.70942,-0.93644 1.26598,-2.53994 1.05435,-3.03761 2.43779,-7.7045 3.19043,-10.76254 0.33334,-1.35438 0.80799,-3.244 1.05478,-4.19912 0.24679,-0.95513 0.54144,-2.25599 0.65478,-2.8908 0.11334,-0.63479 0.51395,-2.69595 0.89024,-4.58032 1.60788,-8.05203 2.51621,-14.22153 2.96256,-20.122009 0.12447,-1.64526 0.14926,-3.06415 0.055,-3.15308 -0.12429,-0.117396 -11.80397,-0.407279 -15.63313,-0.388018 -0.15587,7.83e-4 -0.28339,-0.103324 -0.28339,-0.231432 0,-0.206361 1.75181,-2.894297 2.53674,-3.892308 0.28056,-0.35671 1.58597,-0.377881 23.33614,-0.378583 12.67143,-4.14e-4 23.17961,0.05339 23.35152,0.11949 0.17192,0.06616 0.60914,0.573749 0.97162,1.128052 0.36248,0.554303 0.96501,1.466548 1.33899,2.027214 0.37396,0.560677 0.62118,1.074905 0.54936,1.142733 -0.0719,0.06789 -3.62893,0.164157 -7.90467,0.214047 -4.64452,0.05419 -7.86363,0.175295 -7.99652,0.300802 -0.34015,0.321283 0.335,7.070666 1.46425,14.637862 0.55742,3.73529 2.13793,12.0331 3.04428,15.98282 1.1622,5.06464 3.64472,13.82776 4.55772,16.08841 0.62985,1.55955 0.91267,1.68462 3.80961,1.68462 h 2.53249 l 1.5316,2.17734 c 1.15604,1.64343 1.46008,2.22357 1.23987,2.36588 -0.16047,0.10367 -1.18444,0.15417 -2.27551,0.11218 -1.59671,-0.0616 -1.98373,-0.0174 -1.98373,0.22644 0,0.92747 3.75311,4.05848 6.31779,5.27055 1.563317,0.73882 3.494336,1.41848 5.24461,1.84592 1.576368,0.38497 1.586996,0.40588 1.586996,3.12428 0,2.57432 -0.07232,2.76964 -1.266821,3.42284 -0.393242,0.21504 -0.444065,0.5832 -0.546889,3.96147 l -0.113362,3.72439 -35.151264,0.0542 c -27.15242,0.0419 -35.21334,-0.005 -35.42404,-0.20341 z m 18.09107,-84.725583 c 0,-0.101828 0.17854,-0.415057 0.39675,-0.695931 1.03098,-1.327037 1.19025,-1.833556 1.19025,-3.785578 0,-1.058221 -0.15928,-2.717069 -0.35395,-3.686326 -0.19466,-0.969246 -0.30462,-1.883653 -0.24436,-2.031989 0.1082,-0.266192 2.92922,-1.178092 3.64458,-1.178092 0.58631,0 0.63757,-0.500547 0.16678,-1.628391 -0.91796,-2.199172 -2.11671,-4.938322 -2.54281,-5.810387 -0.24395,-0.499259 -0.44354,-0.960513 -0.44354,-1.025016 0,-0.06455 -0.55227,-1.294129 -1.22729,-2.732523 -0.67502,-1.438388 -1.88402,-4.108828 -2.68665,-5.93431 -1.97928,-4.50159 -4.68479,-10.623712 -5.15732,-11.670241 -0.21271,-0.471093 -0.7766,-1.771949 -1.25307,-2.890794 -0.47647,-1.118844 -0.9549,-2.146133 -1.06319,-2.282864 -0.50252,-0.634497 0.42031,-0.45296 1.70134,0.334687 4.68336,2.879555 10.71589,5.749339 13.99375,6.657075 4.09551,1.134169 4.90394,1.306707 6.32103,1.349051 l 1.50059,0.04484 v -4.710924 -4.710922 l -4.24021,-0.107064 c -2.61094,-0.06593 -4.33502,-0.196853 -4.48695,-0.340739 -0.15162,-0.143586 -0.22128,-0.969114 -0.1807,-2.141328 l 0.066,-1.907656 2.88023,-0.107064 c 1.75891,-0.06539 2.98359,-0.205046 3.14573,-0.358737 0.16735,-0.158634 0.20917,-0.535244 0.11313,-1.018751 -0.23883,-1.202403 -0.93204,-1.4999 -3.512,-1.507175 -1.19551,-0.0033 -2.30119,-0.08409 -2.45705,-0.179367 -0.37783,-0.230968 -0.38739,-3.390206 -0.0113,-3.745395 0.33611,-0.317457 4.14928,-0.347323 5.83324,-0.04569 0.78742,0.141043 1.90219,0.639297 3.35365,1.49893 1.27298,0.753928 2.42938,1.287659 2.78987,1.287659 0.35539,0 1.34299,-0.44843 2.33597,-1.060684 3.00211,-1.851045 2.83915,-1.805454 6.49961,-1.818443 l 3.28734,-0.01167 0.0648,1.953746 c 0.0758,2.28713 0.0933,2.27228 -2.43159,2.072349 -1.7542,-0.138905 -3.01649,0.167421 -3.52708,0.855929 -0.42017,0.566595 -0.44248,1.51686 -0.0429,1.830032 0.1694,0.132786 1.51353,0.259503 3.11732,0.293886 l 2.81951,0.06044 v 2.141328 2.141329 l -4.42093,0.107063 -4.42091,0.107064 -0.0611,4.662502 c -0.0535,4.080166 -0.0166,4.678667 0.29594,4.791921 0.76867,0.278596 6.95655,-1.07004 9.51385,-2.073525 4.38592,-1.721027 7.80116,-3.416472 11.73801,-5.82715 0.96943,-0.593615 1.82118,-1.023957 1.8928,-0.956315 0.11099,0.104798 -0.85322,2.755519 -1.49623,4.11349 -0.49287,1.040873 -1.27782,2.767776 -2.43329,5.353321 -3.13244,7.009288 -3.76139,8.43402 -4.25427,9.636872 -0.28974,0.70713 -0.84319,1.93813 -1.22988,2.735556 -0.38669,0.797427 -0.70307,1.496416 -0.70307,1.553309 0,0.09877 -2.4719,5.667435 -3.87105,8.720699 -0.6844,1.493507 -0.79383,1.984389 -0.48285,2.165931 0.0992,0.05787 0.98721,0.304898 1.97336,0.548861 0.98613,0.243951 1.86764,0.515424 1.9589,0.603273 0.0913,0.08779 0.0135,0.978772 -0.1729,1.979843 -0.18636,1.001071 -0.35837,2.687361 -0.38225,3.747321 -0.0454,2.016651 0.0568,2.297352 1.57919,4.336187 l 0.35977,0.481804 h -17.37128 c -9.62445,0 -17.37124,-0.08261 -17.37124,-0.185259 z"
       id="path1" /></g></svg>
